<svg width="23" height="23" viewBox="0 0 23 23" fill="none" xmlns="http://www.w3.org/2000/svg">
<path d="M0.123505 11.0319C0.123505 8.89485 0.569802 7.00236 1.4624 5.35447C2.3812 3.70668 3.61511 2.43207 5.16401 1.53094C6.73921 0.604014 8.4719 0.140503 10.3621 0.140503C12.0686 0.140503 13.5518 0.475239 14.812 1.14471C16.0984 1.78839 17.1222 2.59949 17.8836 3.5779V0.488086H22.4122V21.7689H17.8836V18.6019C17.1222 19.606 16.0853 20.4428 14.7726 21.1123C13.46 21.7818 11.9635 22.1165 10.2834 22.1165C8.41941 22.1165 6.71301 21.653 5.16401 20.7261C3.61511 19.7734 2.3812 18.4603 1.4624 16.7866C0.569802 15.0872 0.123505 13.169 0.123505 11.0319ZM17.8836 11.1092C17.8836 9.64151 17.5685 8.367 16.9385 7.2856C16.3347 6.20421 15.5339 5.38026 14.5363 4.81377C13.5387 4.24738 12.4624 3.96413 11.3072 3.96413C10.1521 3.96413 9.07571 4.24738 8.07811 4.81377C7.08051 5.35447 6.2667 6.16556 5.6366 7.24696C5.0328 8.30266 4.7309 9.56432 4.7309 11.0319C4.7309 12.4996 5.0328 13.787 5.6366 14.8941C6.2667 16.0013 7.08051 16.851 8.07811 17.4432C9.10201 18.0096 10.1784 18.2929 11.3072 18.2929C12.4624 18.2929 13.5387 18.0096 14.5363 17.4432C15.5339 16.8767 16.3347 16.0528 16.9385 14.9714C17.5685 13.8642 17.8836 12.5769 17.8836 11.1092Z" fill="#110039"/>
</svg>
