<svg width="24" height="23" viewBox="0 0 24 23" fill="none" xmlns="http://www.w3.org/2000/svg">
<path d="M0.884003 11.0319C0.884003 8.89485 1.33 7.00236 2.223 5.35447C3.142 3.70668 4.376 2.43207 5.925 1.53094C7.5 0.604014 9.233 0.140503 11.123 0.140503C12.829 0.140503 14.313 0.475239 15.573 1.14471C16.859 1.78839 17.883 2.59949 18.644 3.5779V0.488086H23.173V21.7689H18.644V18.6019C17.883 19.606 16.846 20.4428 15.533 21.1123C14.221 21.7818 12.724 22.1165 11.044 22.1165C9.18001 22.1165 7.474 21.653 5.925 20.7261C4.376 19.7734 3.142 18.4603 2.223 16.7866C1.33 15.0872 0.884003 13.169 0.884003 11.0319ZM18.644 11.1092C18.644 9.64151 18.329 8.367 17.699 7.2856C17.095 6.20421 16.295 5.38026 15.297 4.81377C14.299 4.24738 13.223 3.96413 12.068 3.96413C10.913 3.96413 9.836 4.24738 8.839 4.81377C7.841 5.35447 7.027 6.16556 6.397 7.24696C5.793 8.30266 5.492 9.56432 5.492 11.0319C5.492 12.4996 5.793 13.787 6.397 14.8941C7.027 16.0013 7.841 16.851 8.839 17.4432C9.863 18.0096 10.939 18.2929 12.068 18.2929C13.223 18.2929 14.299 18.0096 15.297 17.4432C16.295 16.8767 17.095 16.0528 17.699 14.9714C18.329 13.8642 18.644 12.5769 18.644 11.1092Z" fill="#110039"/>
</svg>
