<svg width="24" height="33" viewBox="0 0 24 33" fill="none" xmlns="http://www.w3.org/2000/svg">
<path d="M11.0509 0.140503C12.731 0.140503 14.2143 0.475239 15.501 1.14471C16.813 1.78839 17.837 2.59949 18.572 3.5779V0.488086H23.101V22.1165C23.101 24.0733 22.681 25.8114 21.841 27.3305C21.001 28.8754 19.78 30.0855 18.179 30.9609C16.603 31.8363 14.7131 32.274 12.5079 32.274C9.5676 32.274 7.1261 31.5917 5.1833 30.2271C3.2406 28.8882 2.13801 27.0601 1.87551 24.7428H6.32531C6.66661 25.8499 7.38861 26.7383 8.49121 27.4077C9.62011 28.1029 10.959 28.4505 12.5079 28.4505C14.3193 28.4505 15.776 27.9098 16.879 26.8284C18.008 25.7469 18.572 24.1763 18.572 22.1165V18.5633C17.811 19.5674 16.774 20.4171 15.461 21.1123C14.175 21.7818 12.7048 22.1165 11.0509 22.1165C9.16061 22.1165 7.42801 21.653 5.85281 20.7261C4.30391 19.7734 3.07001 18.4603 2.15111 16.7866C1.25851 15.0872 0.81221 13.169 0.81221 11.0319C0.81221 8.89485 1.25851 7.00236 2.15111 5.35447C3.07001 3.70668 4.30391 2.43207 5.85281 1.53094C7.42801 0.604014 9.16061 0.140503 11.0509 0.140503ZM18.572 11.1092C18.572 9.64151 18.257 8.367 17.627 7.2856C17.023 6.20421 16.223 5.38026 15.225 4.81377C14.2275 4.24738 13.1511 3.96413 11.996 3.96413C10.8408 3.96413 9.76451 4.24738 8.76691 4.81377C7.76921 5.35447 6.95541 6.16556 6.32531 7.24696C5.72151 8.30266 5.41961 9.56432 5.41961 11.0319C5.41961 12.4996 5.72151 13.787 6.32531 14.8941C6.95541 16.0013 7.76921 16.851 8.76691 17.4432C9.79071 18.0096 10.8671 18.2929 11.996 18.2929C13.1511 18.2929 14.2275 18.0096 15.225 17.4432C16.223 16.8767 17.023 16.0528 17.627 14.9714C18.257 13.8642 18.572 12.5769 18.572 11.1092Z" fill="#110039"/>
</svg>
