<svg width="32" height="40" viewBox="0 0 32 40" fill="none" xmlns="http://www.w3.org/2000/svg">
<g clip-path="url(#clip0_2_2)">
<rect width="32" height="40" fill="white"/>
<g clip-path="url(#clip1_2_2)">
<mask id="mask0_2_2" style="mask-type:alpha" maskUnits="userSpaceOnUse" x="0" y="0" width="33" height="41">
<path d="M20.2166 33.9396L26.7933 28.0387C28.7663 26.2684 29.753 26.2072 30.9039 26.9014C32.0548 27.5956 32.3169 29.1872 31.8975 30.4498C31.4043 31.9345 23.6694 40.1881 19.5588 40.1881C16.2704 40.1881 9.63883 32.6673 6.73416 28.9068L0.321708 20.5758C-0.00713193 19.6502 -0.368856 17.5562 0.814968 16.5842C1.99879 15.6123 3.50049 16.1793 4.10337 16.5842L5.74758 18.1463L4.92547 6.5179C5.08989 5.70796 5.84622 4.05338 7.55619 3.91453C9.26616 3.77569 10.0225 5.12944 10.1869 5.82367L10.6802 11.7246C12.1599 8.60047 15.2511 2.10919 15.7772 1.13727C16.4349 -0.0776308 18.0791 -0.424746 19.5588 0.616599C20.7427 1.44968 20.7098 2.9307 20.5454 3.56708C18.9012 6.69111 15.7115 13.0433 16.1061 13.4599C17.5529 13.4599 19.4493 14.0383 20.2166 14.3277C20.7098 14.0383 22.2554 13.4599 24.4915 13.4599C27.2866 13.4599 31.2326 14.3277 31.7259 17.9723C32.2192 21.617 28.2731 21.4435 27.7799 20.9228C25.1563 18.9178 22.8544 19.7855 21.3675 20.5758C21.0935 20.6914 20.348 20.8534 19.5588 20.5758C14.2974 18.1459 11.6667 20.5758 11.6667 23.8733C11.6667 26.978 17.1474 31.857 20.2166 33.9396Z" fill="#E64652"/>
</mask>
<g mask="url(#mask0_2_2)">
<g filter="url(#filter0_f_2_2)">
<path d="M21.3898 8.02128C21.3898 15.733 15.4673 21.9846 8.16153 21.9846C0.85579 21.9846 -5.06668 15.733 -5.06668 8.02128C-5.06668 0.309527 0.85579 -5.94208 8.16153 -5.94208C15.4673 -5.94208 21.3898 0.309527 21.3898 8.02128Z" fill="#4E1AE1"/>
<path d="M19.1395 34.1649C19.1395 41.8767 13.217 48.1283 5.91129 48.1283C-1.39445 48.1283 -7.31693 41.8767 -7.31693 34.1649C-7.31693 26.4531 -1.39445 20.2016 5.91129 20.2016C13.217 20.2016 19.1395 26.4531 19.1395 34.1649Z" fill="#4C15A5"/>
<path d="M34.8985 37.7317C34.8985 45.4435 28.976 51.6951 21.6703 51.6951C14.3645 51.6951 8.44206 45.4435 8.44206 37.7317C8.44206 30.02 14.3645 23.7684 21.6703 23.7684C28.976 23.7684 34.8985 30.02 34.8985 37.7317Z" fill="#E64652"/>
<path d="M38.84 9.80274C38.84 17.5145 32.9175 23.7661 25.6119 23.7661C18.3061 23.7661 12.3836 17.5145 12.3836 9.80274C12.3836 2.091 18.3061 -4.16061 25.6119 -4.16061C32.9175 -4.16061 38.84 2.091 38.84 9.80274Z" fill="#FFAE11"/>
</g>
</g>
</g>
</g>
<defs>
<filter id="filter0_f_2_2" x="-22.3169" y="-20.9421" width="76.157" height="87.6371" filterUnits="userSpaceOnUse" color-interpolation-filters="sRGB">
<feFlood flood-opacity="0" result="BackgroundImageFix"/>
<feBlend mode="normal" in="SourceGraphic" in2="BackgroundImageFix" result="shape"/>
<feGaussianBlur stdDeviation="7.5" result="effect1_foregroundBlur_2_2"/>
</filter>
<clipPath id="clip0_2_2">
<rect width="32" height="40" fill="white"/>
</clipPath>
<clipPath id="clip1_2_2">
<rect width="236" height="51" fill="white"/>
</clipPath>
</defs>
</svg>
