<svg width="36" height="22" viewBox="0 0 36 22" fill="none" xmlns="http://www.w3.org/2000/svg">
<path d="M26.335 0.140503C28.042 0.140503 29.564 0.488087 30.903 1.18335C32.269 1.87852 33.332 2.90843 34.093 4.27307C34.881 5.63771 35.274 7.2856 35.274 9.21674V21.7689H30.825V9.87326C30.825 7.96792 30.339 6.51315 29.368 5.50904C28.396 4.47903 27.07 3.96413 25.39 3.96413C23.71 3.96413 22.371 4.47903 21.374 5.50904C20.402 6.51315 19.917 7.96792 19.917 9.87326V21.7689H15.467V9.87326C15.467 7.96792 14.981 6.51315 14.01 5.50904C13.038 4.47903 11.713 3.96413 10.032 3.96413C8.352 3.96413 7.01301 4.47903 6.01601 5.50904C5.04401 6.51315 4.55901 7.96792 4.55901 9.87326V21.7689H0.0690002V0.488086H4.55901V2.92128C5.29401 2.04584 6.226 1.36352 7.355 0.874314C8.483 0.385106 9.691 0.140503 10.977 0.140503C12.71 0.140503 14.259 0.501034 15.624 1.2219C16.989 1.94286 18.039 2.98571 18.775 4.35036C19.431 3.0629 20.455 2.04584 21.846 1.29918C23.238 0.52673 24.734 0.140503 26.335 0.140503Z" fill="#110039"/>
</svg>
