<svg width="23" height="23" viewBox="0 0 23 23" fill="none" xmlns="http://www.w3.org/2000/svg">
<path d="M11.051 22.1165C9.00299 22.1165 7.152 21.6659 5.498 20.7647C3.844 19.8378 2.545 18.5504 1.599 16.9025C0.653999 15.2289 0.182007 13.2978 0.182007 11.1092C0.182007 8.94634 0.667008 7.02815 1.63901 5.35447C2.61001 3.68088 3.936 2.39353 5.616 1.4923C7.296 0.591166 9.17299 0.140503 11.247 0.140503C13.321 0.140503 15.198 0.591166 16.879 1.4923C18.559 2.39353 19.885 3.68088 20.856 5.35447C21.827 7.02815 22.313 8.94634 22.313 11.1092C22.313 13.272 21.814 15.1902 20.817 16.8639C19.819 18.5375 18.454 19.8378 16.721 20.7647C15.015 21.6659 13.124 22.1165 11.051 22.1165ZM11.051 18.2929C12.206 18.2929 13.282 18.0226 14.28 17.4819C15.303 16.9411 16.13 16.1301 16.76 15.0487C17.391 13.9672 17.706 12.654 17.706 11.1092C17.706 9.56432 17.404 8.26402 16.8 7.20832C16.196 6.12692 15.395 5.31592 14.398 4.77513C13.4 4.23443 12.324 3.96413 11.169 3.96413C10.014 3.96413 8.937 4.23443 7.94 4.77513C6.968 5.31592 6.194 6.12692 5.616 7.20832C5.039 8.26402 4.75 9.56432 4.75 11.1092C4.75 13.4008 5.34 15.1774 6.522 16.439C7.73 17.675 9.23899 18.2929 11.051 18.2929Z" fill="#110039"/>
</svg>
