<svg width="23" height="32" viewBox="0 0 23 32" fill="none" xmlns="http://www.w3.org/2000/svg">
<path d="M5.24001 3.61654C6.00101 2.63813 7.038 1.81418 8.351 1.14471C9.664 0.475239 11.147 0.140503 12.801 0.140503C14.691 0.140503 16.411 0.604014 17.96 1.53094C19.535 2.43207 20.769 3.70668 21.661 5.35447C22.554 7.00236 23 8.89485 23 11.0319C23 13.169 22.554 15.0872 21.661 16.7866C20.769 18.4603 19.535 19.7734 17.96 20.7261C16.411 21.653 14.691 22.1165 12.801 22.1165C11.147 22.1165 9.677 21.7946 8.39 21.1509C7.104 20.4815 6.05401 19.6575 5.24001 18.6791V31.8879H0.751007V0.488086H5.24001V3.61654ZM18.432 11.0319C18.432 9.56432 18.117 8.30266 17.487 7.24696C16.883 6.16556 16.069 5.35447 15.046 4.81377C14.048 4.24738 12.972 3.96413 11.816 3.96413C10.688 3.96413 9.61101 4.24738 8.58701 4.81377C7.59001 5.38026 6.776 6.20421 6.146 7.2856C5.542 8.367 5.24001 9.64151 5.24001 11.1092C5.24001 12.5769 5.542 13.8642 6.146 14.9714C6.776 16.0528 7.59001 16.8767 8.58701 17.4432C9.61101 18.0096 10.688 18.2929 11.816 18.2929C12.972 18.2929 14.048 18.0096 15.046 17.4432C16.069 16.851 16.883 16.0013 17.487 14.8941C18.117 13.787 18.432 12.4996 18.432 11.0319Z" fill="#110039"/>
</svg>
