<svg width="26" height="9" viewBox="0 0 26 9" fill="none" xmlns="http://www.w3.org/2000/svg">
<path fill-rule="evenodd" clip-rule="evenodd" d="M6.50009 8.47612H4.25002L2.56273 1.84973C2.48265 1.54491 2.31261 1.27544 2.06248 1.14843C1.43825 0.829263 0.75039 0.575251 0 0.447141V0.192024H3.62469C4.12495 0.192024 4.50014 0.575251 4.56268 1.02032L5.43813 5.80016L7.68711 0.192024H9.87465L6.50009 8.47612ZM11.1246 8.47612H8.99955L10.7494 0.192024H12.8744L11.1246 8.47612ZM15.6252 2.486C15.6878 2.03982 16.0629 1.78471 16.5007 1.78471C17.1885 1.72065 17.9378 1.84876 18.5632 2.16683L18.9383 0.383226C18.313 0.12811 17.6252 0 17.0009 0C14.9385 0 13.4377 1.14747 13.4377 2.74001C13.4377 3.95154 14.5007 4.58767 15.2511 4.9709C16.0629 5.35302 16.3756 5.60814 16.3131 5.99026C16.3131 6.56344 15.6878 6.81856 15.0635 6.81856C14.3131 6.81856 13.5627 6.6275 12.876 6.30833L12.5008 8.09304C13.2512 8.4111 14.063 8.53921 14.8134 8.53921C17.126 8.60216 18.5632 7.4558 18.5632 5.73514C18.5632 3.56831 15.6252 3.44131 15.6252 2.486ZM26 8.47612L24.3127 0.192024H22.5004C22.1252 0.192024 21.75 0.447141 21.6249 0.829263L18.5005 8.47612H20.688L21.1247 7.2657H23.8125L24.0626 8.47612H26ZM22.8115 2.42377L23.4358 5.54591H21.686L22.8115 2.42377Z" fill="#172B85"/>
</svg>
